<svg xmlns="http://www.w3.org/2000/svg" viewBox="0 0 181 20"><defs><style>.cls-1{fill:#343434;}</style></defs><title>Asset 1cali</title><g id="Layer_2" data-name="Layer 2"><g id="Layer_1-2" data-name="Layer 1"><rect class="cls-1" x="80.31" width="20" height="20" rx="10" ry="10"/><rect class="cls-1" x="102" y="2" width="16" height="16" rx="8" ry="8"/><rect class="cls-1" x="63" y="2" width="16" height="16" rx="8" ry="8"/><rect class="cls-1" x="119" y="3" width="14" height="14" rx="7" ry="7"/><rect class="cls-1" x="48" y="3" width="14" height="14" rx="7" ry="7"/><rect class="cls-1" x="134" y="4" width="12" height="12" rx="6" ry="6"/><rect class="cls-1" x="35" y="4" width="12" height="12" rx="6" ry="6"/><rect class="cls-1" x="24" y="5" width="10" height="10" rx="5" ry="5"/><rect class="cls-1" x="147" y="5" width="10" height="10" rx="5" ry="5"/><rect class="cls-1" x="158" y="6" width="8" height="8" rx="4" ry="4"/><rect class="cls-1" x="15" y="6" width="8" height="8" rx="4" ry="4"/><rect class="cls-1" x="167" y="7" width="6" height="6" rx="3" ry="3"/><rect class="cls-1" x="8" y="7" width="6" height="6" rx="3" ry="3"/><rect class="cls-1" x="174" y="8" width="4" height="4" rx="2" ry="2"/><rect class="cls-1" x="3" y="8" width="4" height="4" rx="2" ry="2"/><rect class="cls-1" x="179" y="9" width="2" height="2" rx="1" ry="1"/><rect class="cls-1" y="9" width="2" height="2" rx="1" ry="1"/></g></g></svg>